<svg xmlns="http://www.w3.org/2000/svg" viewBox="0 0 411 386"><path fill="#000" fill-rule="nonzero" d="M 171 363 L 170 364 L 170 367 L 171 367 L 171 366 L 173 365 Z M 201 336 L 200 340 L 202 340 Z M 394 307 L 397 310 L 398 310 L 400 308 L 399 306 L 395 306 Z M 0 293 L 0 295 L 3 296 L 4 298 L 6 296 L 6 294 L 4 293 Z M 138 183 L 136 184 L 134 190 L 128 197 L 126 197 L 124 195 L 126 192 L 125 188 L 128 185 L 128 184 L 124 187 L 119 186 L 116 190 L 116 193 L 115 194 L 112 194 L 104 205 L 103 205 L 100 202 L 100 200 L 99 201 L 97 201 L 96 200 L 97 199 L 97 196 L 96 196 L 93 199 L 90 205 L 88 207 L 88 208 L 89 207 L 90 208 L 89 212 L 83 219 L 81 219 L 79 216 L 79 213 L 81 211 L 81 209 L 80 209 L 67 222 L 66 222 L 63 228 L 61 230 L 59 230 L 59 235 L 60 236 L 56 241 L 56 243 L 52 245 L 51 247 L 52 250 L 51 251 L 52 252 L 53 251 L 55 251 L 58 247 L 60 247 L 61 248 L 62 247 L 64 249 L 64 255 L 66 257 L 65 261 L 67 264 L 69 265 L 72 265 L 74 264 L 80 269 L 81 269 L 82 267 L 84 267 L 85 268 L 85 271 L 84 272 L 84 274 L 80 279 L 81 279 L 83 282 L 87 281 L 87 279 L 88 278 L 90 279 L 91 277 L 95 277 L 95 276 L 99 272 L 100 273 L 102 273 L 106 269 L 110 261 L 116 254 L 117 252 L 117 249 L 126 234 L 123 237 L 121 237 L 119 240 L 118 240 L 117 238 L 125 227 L 125 223 L 127 221 L 129 222 L 132 218 L 131 214 L 136 209 L 136 206 L 132 213 L 130 213 L 128 211 L 130 205 L 131 204 L 133 204 L 134 205 L 134 202 L 136 198 L 135 197 L 138 195 L 140 190 L 137 192 L 135 192 L 134 191 L 134 189 Z M 122 218 L 123 217 L 125 217 L 126 218 L 126 220 L 124 221 L 122 219 Z M 128 197 L 130 196 L 131 198 L 129 199 Z M 122 189 L 124 188 L 125 190 L 124 191 Z M 115 180 L 110 185 L 109 188 L 111 187 L 111 186 L 114 183 Z M 137 101 L 143 100 L 144 99 L 145 100 L 147 98 L 143 98 L 141 97 L 138 100 L 137 100 Z M 273 96 L 269 95 L 265 98 Z M 83 84 L 78 89 L 78 91 L 79 92 L 78 93 L 80 93 L 82 95 L 81 98 L 79 100 L 79 105 L 80 107 L 76 110 L 71 107 L 72 108 L 72 110 L 71 111 L 75 114 L 75 116 L 76 117 L 77 117 L 77 116 L 79 114 L 81 114 L 87 119 L 87 122 L 88 124 L 91 125 L 94 128 L 97 128 L 100 131 L 100 132 L 98 134 L 95 134 L 91 131 L 89 133 L 90 134 L 92 133 L 106 146 L 108 144 L 112 143 L 115 146 L 114 149 L 116 148 L 116 145 L 118 143 L 121 143 L 123 145 L 125 145 L 127 143 L 126 142 L 124 142 L 122 140 L 122 137 L 126 134 L 128 135 L 129 133 L 128 132 L 128 130 L 130 128 L 131 128 L 131 126 L 132 125 L 134 125 L 136 127 L 136 129 L 140 128 L 140 126 L 138 123 L 140 119 L 142 119 L 144 121 L 144 117 L 141 114 L 139 114 L 134 108 L 136 106 L 136 104 L 135 102 L 134 102 L 132 100 L 133 98 L 133 95 L 127 90 L 127 89 L 129 87 L 124 83 L 122 85 L 127 89 L 127 92 L 124 95 L 122 94 L 127 97 L 130 101 L 130 102 L 127 105 L 126 105 L 124 103 L 124 101 L 123 101 L 117 95 L 116 97 L 113 97 L 112 95 L 110 94 L 109 92 L 110 90 L 112 88 L 114 88 L 110 85 L 107 88 L 106 88 L 101 84 L 99 85 L 95 85 L 92 87 L 88 87 L 86 85 L 86 84 Z M 345 39 L 342 39 L 339 41 L 337 41 L 338 41 L 342 45 Z M 200 27 L 199 29 L 199 32 L 202 31 Z M 308 22 L 308 28 L 310 30 L 311 30 L 313 28 L 313 27 L 311 26 L 309 24 L 309 22 Z M 230 7 L 220 11 L 218 21 L 213 25 L 211 21 L 205 29 L 200 43 L 208 41 L 209 45 L 204 53 L 207 58 L 183 95 L 183 89 L 154 128 L 153 135 L 145 140 L 143 149 L 137 153 L 139 155 L 143 152 L 145 157 L 149 156 L 146 170 L 141 174 L 146 173 L 148 169 L 161 168 L 151 186 L 157 180 L 160 181 L 159 178 L 167 171 L 168 178 L 181 163 L 182 179 L 184 175 L 186 177 L 182 217 L 177 225 L 177 212 L 173 241 L 176 237 L 177 245 L 173 257 L 171 247 L 167 274 L 171 272 L 168 293 L 165 299 L 162 297 L 158 315 L 161 312 L 163 314 L 159 330 L 163 329 L 162 339 L 157 343 L 156 338 L 154 344 L 155 350 L 158 348 L 161 352 L 159 362 L 167 337 L 168 320 L 173 315 L 175 321 L 172 337 L 175 339 L 171 345 L 170 357 L 172 359 L 177 353 L 178 360 L 182 353 L 186 324 L 189 320 L 193 321 L 186 360 L 187 380 L 191 375 L 190 356 L 195 356 L 198 347 L 201 349 L 201 343 L 197 345 L 196 327 L 199 317 L 203 319 L 202 323 L 205 321 L 207 292 L 204 299 L 202 292 L 207 265 L 210 277 L 210 265 L 206 263 L 208 258 L 212 261 L 215 229 L 212 230 L 219 166 L 214 180 L 213 159 L 218 138 L 220 148 L 222 127 L 221 125 L 218 133 L 210 123 L 223 103 L 220 100 L 215 107 L 210 103 L 220 93 L 221 85 L 232 75 L 235 77 L 232 82 L 239 73 L 240 79 L 261 41 L 259 38 L 256 43 L 251 41 L 250 34 L 255 29 L 244 27 L 240 22 L 243 19 L 241 17 L 228 20 L 225 14 Z M 178 342 L 180 344 L 180 346 L 179 347 L 178 347 L 176 345 L 176 344 Z M 180 338 L 180 336 L 181 335 L 182 335 L 184 337 L 182 339 Z M 200 286 L 201 287 L 201 290 L 199 292 L 197 290 L 197 288 L 199 286 Z M 199 284 L 201 283 L 202 285 L 200 286 Z M 177 279 L 180 282 L 180 283 L 176 291 L 178 289 L 180 291 L 176 296 L 174 296 L 172 293 L 173 292 L 173 285 L 174 284 L 175 280 Z M 202 272 L 204 274 L 204 276 L 203 278 L 201 279 L 200 278 L 200 276 Z M 178 270 L 180 272 L 180 274 L 177 278 L 175 275 L 176 274 L 176 272 Z M 204 259 L 205 260 L 205 263 L 204 264 L 202 262 L 202 261 Z M 205 253 L 207 255 L 207 256 L 205 258 L 204 258 L 203 257 L 203 255 Z M 213 235 L 214 236 L 212 239 L 211 238 L 211 236 Z M 176 233 L 177 234 L 177 236 L 175 237 L 174 235 Z M 208 225 L 208 223 L 209 222 L 211 224 L 209 226 Z M 212 207 L 213 208 L 213 210 L 211 214 L 210 213 L 210 210 L 209 209 L 211 207 Z M 212 194 L 214 195 L 214 198 L 213 199 L 211 198 L 211 195 Z M 214 185 L 215 186 L 215 191 L 213 194 L 212 193 L 212 190 L 211 188 L 212 186 Z M 185 166 L 186 167 L 186 170 L 184 172 L 183 171 L 183 168 Z M 242 67 L 243 68 L 242 69 L 242 71 L 240 73 L 239 73 L 237 70 L 239 68 Z M 297 5 L 287 8 L 286 22 L 290 23 L 277 32 L 268 46 L 274 65 L 276 61 L 280 66 L 277 69 L 280 82 L 285 80 L 292 88 L 278 93 L 283 96 L 275 101 L 253 104 L 255 98 L 240 99 L 230 108 L 237 111 L 234 118 L 225 121 L 238 128 L 240 132 L 235 135 L 241 137 L 256 134 L 260 125 L 262 131 L 276 131 L 275 155 L 251 165 L 239 164 L 236 169 L 240 172 L 233 182 L 239 187 L 247 185 L 238 194 L 242 196 L 257 194 L 266 187 L 272 191 L 269 214 L 250 221 L 239 220 L 234 225 L 240 227 L 232 237 L 239 244 L 246 243 L 237 250 L 252 252 L 265 245 L 269 254 L 274 255 L 266 278 L 232 284 L 225 291 L 222 288 L 221 292 L 247 289 L 244 294 L 225 300 L 228 304 L 219 308 L 223 311 L 228 308 L 228 314 L 237 310 L 246 313 L 224 322 L 234 321 L 235 326 L 317 314 L 318 308 L 334 307 L 337 311 L 333 313 L 387 312 L 391 304 L 373 303 L 392 298 L 385 296 L 389 289 L 405 288 L 398 280 L 392 286 L 388 281 L 393 277 L 381 271 L 387 269 L 378 267 L 377 262 L 355 263 L 348 266 L 353 269 L 350 273 L 345 268 L 331 272 L 314 268 L 316 240 L 335 233 L 347 234 L 351 227 L 342 230 L 338 227 L 352 223 L 348 220 L 353 218 L 353 211 L 358 216 L 361 214 L 358 208 L 346 206 L 344 203 L 348 201 L 344 198 L 317 202 L 320 180 L 360 172 L 349 163 L 358 158 L 356 154 L 351 157 L 345 154 L 350 151 L 343 147 L 344 142 L 320 146 L 321 123 L 332 120 L 332 115 L 363 114 L 361 110 L 344 113 L 342 109 L 360 105 L 357 103 L 362 97 L 371 95 L 369 88 L 363 95 L 356 89 L 359 84 L 349 83 L 357 79 L 355 76 L 346 77 L 331 88 L 327 82 L 315 85 L 319 88 L 314 90 L 313 86 L 304 84 L 313 71 L 317 77 L 320 75 L 318 69 L 324 65 L 320 52 L 329 44 L 318 46 L 312 35 L 313 44 L 308 43 L 306 28 L 298 20 L 299 16 L 291 15 Z M 261 321 L 264 317 L 267 317 L 269 319 L 265 322 L 262 322 Z M 247 309 L 248 311 L 246 312 L 245 311 Z M 262 309 L 263 308 L 265 310 L 263 311 Z M 344 307 L 345 306 L 349 306 L 350 308 L 346 310 L 344 308 Z M 329 303 L 329 302 L 331 300 L 337 301 L 338 302 L 336 304 L 330 304 Z M 252 282 L 254 281 L 255 283 L 253 284 Z M 315 272 L 317 270 L 319 272 L 318 273 L 316 273 Z M 271 270 L 273 271 L 273 274 L 272 275 L 270 275 L 269 274 Z M 353 269 L 357 267 L 359 267 L 360 268 L 360 270 L 359 271 L 354 271 Z M 308 265 L 310 264 L 311 266 L 309 267 Z M 271 248 L 273 247 L 274 248 L 274 250 L 272 251 L 271 250 Z M 312 246 L 313 247 L 313 250 L 311 251 L 310 250 L 310 248 Z M 244 224 L 246 222 L 250 222 L 251 223 L 251 224 L 248 226 L 246 226 Z M 259 220 L 260 218 L 262 219 L 260 221 Z M 274 203 L 276 204 L 276 207 L 275 208 L 276 210 L 275 211 L 273 211 L 272 210 L 272 205 Z M 314 186 L 315 187 L 315 189 L 314 190 L 312 188 Z M 312 183 L 314 182 L 315 184 L 313 185 Z M 235 182 L 236 181 L 238 181 L 239 182 L 238 183 L 236 183 Z M 336 176 L 338 174 L 340 174 L 341 175 L 340 177 L 337 177 Z M 348 166 L 349 168 L 345 171 L 344 169 L 347 166 Z M 245 168 L 245 167 L 248 165 L 250 167 L 248 169 L 246 169 Z M 268 160 L 268 161 L 266 163 L 263 163 L 262 162 L 266 159 Z M 278 149 L 279 150 L 279 153 L 277 154 L 276 153 L 276 151 Z M 277 143 L 279 144 L 279 147 L 278 148 L 276 146 L 276 144 Z M 268 127 L 269 126 L 272 126 L 273 128 L 272 129 L 269 129 Z M 232 122 L 234 121 L 235 123 L 233 124 Z M 284 96 L 284 94 L 285 93 L 289 93 L 290 94 L 289 96 L 287 96 L 286 97 Z M 293 94 L 294 92 L 296 92 L 297 93 L 295 95 Z M 327 86 L 325 88 L 321 88 L 320 87 L 321 85 L 324 85 L 325 84 Z M 343 82 L 345 81 L 346 83 L 344 84 Z M 297 82 L 299 81 L 302 85 L 300 87 L 299 87 L 298 86 Z"/></svg>
