<svg xmlns="http://www.w3.org/2000/svg" viewBox="0 0 268 277"><path fill="#000" fill-rule="nonzero" d="M 203 8 L 187 1 L 183 2 L 180 0 L 169 0 L 167 3 L 165 3 L 161 10 L 155 29 L 147 45 L 145 25 L 143 20 L 141 19 L 140 14 L 138 13 L 122 17 L 104 26 L 101 24 L 98 25 L 95 29 L 93 41 L 102 61 L 95 64 L 90 63 L 77 68 L 75 71 L 77 76 L 73 81 L 64 59 L 49 38 L 43 37 L 34 40 L 11 60 L 10 66 L 11 73 L 14 77 L 14 81 L 25 93 L 47 109 L 0 130 L 0 162 L 4 171 L 10 178 L 13 179 L 26 170 L 27 171 L 21 208 L 19 234 L 21 239 L 24 241 L 24 246 L 39 255 L 42 259 L 48 262 L 54 262 L 69 247 L 91 221 L 92 251 L 94 265 L 101 276 L 146 276 L 160 272 L 168 268 L 170 269 L 169 276 L 227 275 L 230 258 L 229 163 L 225 159 L 226 155 L 217 148 L 219 146 L 244 143 L 249 139 L 254 139 L 260 136 L 262 131 L 258 127 L 259 122 L 256 118 L 254 111 L 259 109 L 261 106 L 259 104 L 254 103 L 251 97 L 231 99 L 216 103 L 214 102 L 221 94 L 223 88 L 226 86 L 227 83 L 224 78 L 215 73 L 223 70 L 226 64 L 223 53 L 219 47 L 222 44 L 222 41 L 214 37 L 208 37 L 203 39 L 200 38 L 210 26 L 208 16 Z M 92 177 L 93 177 L 94 178 L 94 184 L 93 185 L 90 182 L 90 181 L 89 180 L 89 179 Z M 73 172 L 74 173 L 74 177 L 76 179 L 76 180 L 72 184 L 71 183 L 71 175 Z M 210 155 L 214 159 L 214 163 L 215 164 L 215 170 L 216 171 L 216 179 L 217 180 L 217 191 L 218 192 L 218 210 L 219 211 L 219 223 L 218 224 L 218 239 L 217 240 L 217 247 L 216 248 L 216 254 L 215 255 L 215 260 L 214 261 L 214 264 L 213 265 L 213 268 L 212 269 L 212 272 L 211 273 L 209 273 L 208 274 L 206 274 L 205 275 L 203 273 L 198 273 L 196 271 L 196 270 L 192 270 L 191 271 L 189 271 L 186 275 L 184 272 L 184 268 L 183 267 L 183 264 L 182 264 L 181 269 L 180 270 L 179 269 L 179 257 L 178 256 L 178 255 L 176 253 L 172 253 L 171 254 L 169 254 L 162 258 L 160 258 L 153 262 L 151 262 L 146 265 L 139 265 L 138 266 L 136 266 L 133 268 L 131 268 L 128 270 L 126 270 L 121 273 L 119 273 L 118 272 L 116 272 L 115 273 L 114 273 L 113 272 L 113 270 L 112 269 L 111 264 L 109 262 L 109 261 L 108 261 L 106 259 L 106 257 L 105 256 L 105 253 L 104 252 L 104 249 L 103 248 L 103 242 L 102 241 L 102 205 L 103 204 L 103 194 L 104 193 L 104 185 L 105 184 L 105 178 L 106 177 L 106 175 L 119 168 L 121 168 L 122 167 L 125 167 L 126 166 L 128 168 L 128 171 L 129 171 L 130 172 L 132 172 L 134 170 L 135 170 L 150 162 L 152 162 L 155 160 L 157 160 L 160 158 L 162 158 L 165 156 L 167 156 L 170 154 L 172 154 L 173 153 L 176 153 L 177 152 L 183 152 L 184 151 L 191 151 L 192 150 L 197 150 L 198 149 L 200 149 L 202 151 L 203 151 L 207 154 Z M 180 215 L 176 211 L 174 211 L 171 214 L 166 215 L 165 216 L 164 216 L 157 220 L 155 220 L 140 228 L 138 228 L 137 229 L 134 230 L 133 231 L 133 234 L 134 235 L 134 242 L 135 242 L 136 243 L 139 241 L 141 241 L 144 239 L 146 239 L 149 237 L 151 237 L 154 235 L 156 235 L 157 234 L 158 234 L 159 233 L 161 233 L 164 231 L 169 230 L 172 228 L 177 228 L 178 227 L 179 227 L 180 226 L 180 223 L 179 222 L 179 216 Z M 177 180 L 174 178 L 172 178 L 171 179 L 169 179 L 168 180 L 165 180 L 164 181 L 162 181 L 159 183 L 157 183 L 154 185 L 152 185 L 135 194 L 133 194 L 132 195 L 131 195 L 131 196 L 130 197 L 130 198 L 131 199 L 131 207 L 132 208 L 136 208 L 137 207 L 139 207 L 142 205 L 144 205 L 147 203 L 149 203 L 152 201 L 154 201 L 155 200 L 157 200 L 158 199 L 160 199 L 161 198 L 163 198 L 164 197 L 167 197 L 168 196 L 171 196 L 172 195 L 174 197 L 177 197 L 179 195 L 179 192 L 178 191 L 178 183 L 177 182 Z M 55 117 L 58 120 L 58 121 L 64 128 L 64 129 L 65 130 L 65 135 L 66 136 L 66 148 L 65 149 L 65 157 L 64 158 L 64 165 L 63 166 L 63 174 L 62 175 L 62 182 L 61 183 L 61 191 L 60 192 L 60 199 L 59 200 L 59 203 L 61 205 L 62 204 L 63 204 L 63 203 L 79 187 L 80 187 L 81 186 L 83 188 L 83 189 L 87 196 L 87 200 L 86 201 L 86 204 L 85 205 L 85 207 L 86 207 L 87 208 L 86 209 L 86 210 L 81 215 L 81 216 L 73 224 L 73 225 L 69 229 L 68 229 L 53 244 L 52 244 L 48 247 L 47 247 L 44 244 L 43 244 L 35 238 L 35 236 L 31 232 L 31 230 L 30 229 L 30 222 L 31 221 L 31 207 L 32 206 L 32 195 L 33 194 L 33 187 L 34 186 L 34 180 L 35 179 L 35 170 L 36 169 L 36 155 L 34 155 L 32 157 L 31 157 L 29 159 L 26 160 L 18 166 L 15 167 L 13 165 L 13 164 L 10 160 L 10 158 L 7 153 L 7 151 L 6 150 L 6 148 L 5 147 L 5 146 L 11 140 L 10 139 L 12 137 L 15 136 L 17 134 L 22 132 L 24 130 L 25 130 L 26 129 L 27 129 L 28 128 L 29 128 L 48 118 L 54 118 Z M 74 86 L 75 87 L 75 89 L 76 90 L 76 94 L 77 95 L 77 97 L 80 100 L 79 101 L 79 103 L 82 106 L 83 106 L 84 107 L 83 108 L 83 109 L 79 112 L 79 113 L 78 114 L 78 119 L 77 120 L 77 121 L 78 122 L 78 123 L 81 126 L 82 126 L 84 128 L 85 128 L 89 131 L 89 132 L 88 133 L 86 133 L 85 134 L 83 134 L 82 135 L 80 135 L 79 136 L 78 135 L 78 132 L 77 131 L 76 128 L 75 128 L 73 126 L 73 124 L 72 123 L 72 122 L 70 120 L 70 119 L 68 117 L 68 116 L 65 113 L 65 111 L 64 110 L 62 110 L 59 107 L 53 107 L 52 108 L 51 108 L 50 107 L 54 104 L 54 103 L 59 98 L 59 97 L 67 89 L 71 89 Z M 43 48 L 44 49 L 44 50 L 47 53 L 47 54 L 50 57 L 51 60 L 53 62 L 55 67 L 57 69 L 57 70 L 59 73 L 59 77 L 62 81 L 62 82 L 54 90 L 54 91 L 49 96 L 49 97 L 48 98 L 47 98 L 41 92 L 39 92 L 38 91 L 38 90 L 32 84 L 32 83 L 23 73 L 23 66 L 34 54 L 35 54 L 38 51 L 41 50 Z M 194 18 L 198 22 L 195 25 L 195 29 L 188 39 L 179 48 L 178 52 L 181 55 L 190 50 L 207 46 L 210 53 L 210 62 L 202 65 L 197 65 L 191 70 L 181 72 L 179 74 L 180 98 L 182 97 L 197 75 L 212 82 L 213 84 L 212 88 L 207 96 L 197 108 L 193 111 L 180 104 L 178 117 L 180 119 L 184 119 L 193 116 L 213 112 L 218 112 L 235 108 L 241 108 L 242 109 L 241 112 L 243 114 L 244 121 L 243 125 L 237 128 L 246 128 L 247 129 L 246 130 L 235 131 L 215 137 L 210 137 L 204 139 L 195 139 L 183 143 L 158 148 L 133 155 L 126 154 L 106 162 L 101 162 L 92 168 L 82 169 L 78 158 L 78 149 L 83 146 L 84 143 L 110 133 L 119 131 L 122 129 L 120 120 L 114 124 L 107 131 L 98 126 L 87 116 L 97 105 L 103 101 L 105 101 L 118 115 L 121 113 L 119 103 L 119 90 L 117 88 L 90 97 L 87 92 L 86 81 L 89 76 L 94 73 L 113 68 L 115 65 L 115 63 L 111 60 L 108 53 L 105 37 L 114 32 L 132 26 L 135 37 L 135 43 L 138 51 L 138 60 L 142 61 L 154 57 L 156 55 L 154 49 L 163 31 L 167 27 L 172 17 L 176 12 L 177 14 L 175 18 L 179 14 L 188 15 Z M 155 79 L 152 79 L 151 80 L 149 80 L 148 81 L 146 81 L 145 82 L 142 82 L 140 85 L 140 86 L 142 89 L 142 101 L 143 102 L 143 112 L 144 113 L 144 123 L 145 124 L 147 124 L 148 123 L 151 123 L 152 122 L 154 122 L 154 121 L 155 120 L 155 119 L 154 118 L 154 116 L 155 115 L 155 95 L 156 94 L 156 80 Z M 176 11 L 177 10 L 178 11 L 178 12 L 177 13 L 176 12 Z"/></svg>
